<svg xmlns="http://www.w3.org/2000/svg" xmlns:xlink="http://www.w3.org/1999/xlink" width="500" zoomAndPan="magnify" viewBox="0 0 375 374.999991" height="500" preserveAspectRatio="xMidYMid meet" version="1.2"><defs><clipPath id="5ca5283157"><path d="M 93.371094 116.816406 L 281 116.816406 L 281 152 L 93.371094 152 Z M 93.371094 116.816406 "/></clipPath><clipPath id="a87c4c42af"><path d="M 93.371094 223 L 281 223 L 281 257.816406 L 93.371094 257.816406 Z M 93.371094 223 "/></clipPath></defs><g id="a2c4ae6f09"><g style="fill:#ffffff;fill-opacity:1;"><g transform="translate(90.701186, 210.842161)"><path style="stroke:none" d="M 11.59375 0 L 3.625 -50.703125 L 10.21875 -50.703125 L 14.78125 -15.21875 L 19.34375 -50.703125 L 25.9375 -50.703125 L 17.96875 0 Z M 11.59375 0 "/></g></g><g style="fill:#ffffff;fill-opacity:1;"><g transform="translate(122.061372, 210.842161)"><path style="stroke:none" d="M 3.625 0 L 12.03125 -50.703125 L 18.328125 -50.703125 L 26.796875 0 L 20.203125 0 L 18.46875 -10.359375 L 11.875 -10.359375 L 10.21875 0 Z M 12.96875 -16.875 L 17.390625 -16.875 L 15.21875 -30.140625 Z M 12.96875 -16.875 "/></g></g><g style="fill:#ffffff;fill-opacity:1;"><g transform="translate(154.290661, 210.842161)"><path style="stroke:none" d="M 3.625 0 L 3.625 -50.703125 L 13.109375 -50.703125 C 15.429688 -50.703125 17.410156 -49.976562 19.046875 -48.53125 C 20.785156 -47.03125 21.828125 -45.171875 22.171875 -42.953125 C 22.210938 -42.765625 22.234375 -42.304688 22.234375 -41.578125 L 22.171875 -30.859375 C 22.171875 -29.117188 21.6875 -27.476562 20.71875 -25.9375 C 19.800781 -24.488281 18.519531 -23.375 16.875 -22.59375 L 24.484375 0 L 17.609375 0 L 10.28125 -21.734375 L 10.140625 -21.734375 L 10.140625 0 Z M 10.140625 -28.25 L 13.109375 -28.25 C 13.878906 -28.25 14.507812 -28.515625 15 -29.046875 C 15.476562 -29.523438 15.71875 -30.128906 15.71875 -30.859375 L 15.71875 -41.578125 C 15.71875 -42.304688 15.453125 -42.9375 14.921875 -43.46875 C 14.441406 -43.945312 13.835938 -44.1875 13.109375 -44.1875 L 10.140625 -44.1875 Z M 10.140625 -28.25 "/></g></g><g style="fill:#ffffff;fill-opacity:1;"><g transform="translate(184.20236, 210.842161)"><path style="stroke:none" d="M 12.75 0.4375 C 11.15625 0.4375 9.671875 0.0234375 8.296875 -0.796875 C 6.921875 -1.617188 5.804688 -2.703125 4.953125 -4.046875 C 4.109375 -5.398438 3.6875 -6.898438 3.6875 -8.546875 L 3.625 -12.828125 L 10.140625 -12.96875 L 10.21875 -8.625 L 10.21875 -8.1875 C 10.3125 -7.707031 10.550781 -7.269531 10.9375 -6.875 C 11.414062 -6.394531 12.019531 -6.15625 12.75 -6.15625 L 13.6875 -6.15625 C 14.414062 -6.15625 15.019531 -6.421875 15.5 -6.953125 C 15.976562 -7.429688 16.21875 -8.035156 16.21875 -8.765625 L 16.15625 -11.65625 C 16.15625 -13.101562 15.84375 -14.382812 15.21875 -15.5 L 5.875 -33.25 C 5.382812 -34.164062 4.96875 -35.300781 4.625 -36.65625 C 4.289062 -38.007812 4.125 -39.21875 4.125 -40.28125 C 4.175781 -42.351562 4.378906 -43.957031 4.734375 -45.09375 C 5.097656 -46.226562 5.765625 -47.328125 6.734375 -48.390625 C 7.554688 -49.304688 8.554688 -49.992188 9.734375 -50.453125 C 10.921875 -50.910156 12.046875 -51.140625 13.109375 -51.140625 L 13.984375 -51.140625 C 16.203125 -51.140625 18.179688 -50.390625 19.921875 -48.890625 C 21.035156 -47.972656 21.84375 -46.898438 22.34375 -45.671875 C 22.851562 -44.441406 23.109375 -43.222656 23.109375 -42.015625 L 23.1875 -38.828125 L 16.734375 -38.6875 L 16.65625 -41.9375 C 16.613281 -42.375 16.539062 -42.722656 16.4375 -42.984375 C 16.34375 -43.253906 16.148438 -43.535156 15.859375 -43.828125 C 15.378906 -44.304688 14.753906 -44.546875 13.984375 -44.546875 L 13.1875 -44.546875 C 12.457031 -44.546875 11.851562 -44.304688 11.375 -43.828125 C 11.03125 -43.484375 10.820312 -43.082031 10.75 -42.625 C 10.675781 -42.164062 10.664062 -41.382812 10.71875 -40.28125 C 10.71875 -39.5 10.789062 -38.804688 10.9375 -38.203125 C 11.082031 -37.609375 11.320312 -36.972656 11.65625 -36.296875 L 20.9375 -18.546875 C 21.5625 -17.285156 22.003906 -16.039062 22.265625 -14.8125 C 22.535156 -13.582031 22.671875 -12.554688 22.671875 -11.734375 L 22.75 -8.84375 C 22.84375 -7.25 22.476562 -5.75 21.65625 -4.34375 C 20.832031 -2.945312 19.734375 -1.800781 18.359375 -0.90625 C 16.984375 -0.0078125 15.472656 0.4375 13.828125 0.4375 Z M 12.75 0.4375 "/></g></g><g style="fill:#ffffff;fill-opacity:1;"><g transform="translate(212.810407, 210.842161)"><path style="stroke:none" d="M 3.625 0 L 3.6875 -50.703125 L 10.140625 -50.703125 L 10.21875 0 Z M 3.625 0 "/></g></g><g style="fill:#ffffff;fill-opacity:1;"><g transform="translate(228.454406, 210.842161)"><path style="stroke:none" d="M 3.6875 0 L 3.625 -50.703125 L 18.40625 -50.703125 L 18.328125 -44.1875 L 10.140625 -44.1875 L 10.140625 -28.109375 L 16.15625 -28.109375 L 16.21875 -21.59375 L 10.140625 -21.59375 L 10.21875 0 Z M 3.6875 0 "/></g></g><g style="fill:#ffffff;fill-opacity:1;"><g transform="translate(252.282417, 210.842161)"><path style="stroke:none" d="M 12.828125 0 L 12.75 -24.921875 L 3.625 -50.703125 L 10.578125 -50.703125 L 16.015625 -35.28125 L 21.515625 -50.703125 L 28.390625 -50.703125 L 19.265625 -24.921875 L 19.265625 0 Z M 12.828125 0 "/></g></g><g clip-rule="nonzero" clip-path="url(#5ca5283157)"><path style=" stroke:none;fill-rule:evenodd;fill:#ffffff;fill-opacity:1;" d="M 280.9375 142.507812 C 258.132812 126.625 227.117188 116.816406 192.992188 116.816406 C 152.707031 116.816406 116.832031 130.421875 93.570312 151.632812 C 112.875 136.277344 140.621094 126.703125 171.480469 126.703125 C 195.730469 126.703125 218 132.554688 235.785156 142.507812 Z M 280.9375 142.507812 "/></g><g clip-rule="nonzero" clip-path="url(#a87c4c42af)"><path style=" stroke:none;fill-rule:evenodd;fill:#ffffff;fill-opacity:1;" d="M 93.570312 232.125 C 116.375 248.015625 147.386719 257.816406 181.515625 257.816406 C 221.796875 257.816406 257.75 244.210938 280.9375 223.007812 C 261.703125 238.363281 233.882812 247.9375 203.023438 247.9375 C 178.851562 247.9375 156.582031 242.082031 138.796875 232.125 Z M 93.570312 232.125 "/></g></g></svg>